<svg height="34" viewBox="0 0 34 34" width="34" xmlns="http://www.w3.org/2000/svg"><g fill="none" fill-rule="evenodd"><path d="m-3-3h40v40h-40zm0 0h40v40h-40z"/><path d="m24.65 9.633-10.983 10.984-5.984-5.967-2.35 2.35 8.334 8.333 13.333-13.333zm-7.65-9.3c-9.2 0-16.667 7.467-16.667 16.667s7.467 16.667 16.667 16.667 16.667-7.467 16.667-16.667-7.467-16.667-16.667-16.667zm0 30c-7.367 0-13.333-5.966-13.333-13.333s5.966-13.333 13.333-13.333 13.333 5.966 13.333 13.333-5.966 13.333-13.333 13.333z" fill="#28a745" fill-rule="nonzero"/></g></svg>